<svg width="31" height="29" viewBox="0 0 31 29" fill="none" xmlns="http://www.w3.org/2000/svg">
<path d="M15.6541 24.5979L15.5 24.7521L15.3304 24.5979C8.00748 17.9533 3.16665 13.5596 3.16665 9.10417C3.16665 6.02083 5.47915 3.70833 8.56248 3.70833C10.9366 3.70833 13.2491 5.25 14.0662 7.34667H16.9337C17.7508 5.25 20.0633 3.70833 22.4375 3.70833C25.5208 3.70833 27.8333 6.02083 27.8333 9.10417C27.8333 13.5596 22.9925 17.9533 15.6541 24.5979ZM22.4375 0.625C19.755 0.625 17.1804 1.87375 15.5 3.83167C13.8196 1.87375 11.245 0.625 8.56248 0.625C3.81415 0.625 0.083313 4.34042 0.083313 9.10417C0.083313 14.9162 5.32498 19.68 13.2646 26.8796L15.5 28.9146L17.7354 26.8796C25.675 19.68 30.9166 14.9162 30.9166 9.10417C30.9166 4.34042 27.1858 0.625 22.4375 0.625Z" fill="#FFC200"/>
</svg>
