<svg width="34" height="31" viewBox="0 0 34 31" fill="none" xmlns="http://www.w3.org/2000/svg">
<path d="M17.1667 25.9167L17 26.0833L16.8167 25.9167C8.89999 18.7333 3.66666 13.9833 3.66666 9.16667C3.66666 5.83333 6.16666 3.33333 9.49999 3.33333C12.0667 3.33333 14.5667 5 15.45 7.26667H18.55C19.4333 5 21.9333 3.33333 24.5 3.33333C27.8333 3.33333 30.3333 5.83333 30.3333 9.16667C30.3333 13.9833 25.1 18.7333 17.1667 25.9167ZM24.5 0C21.6 0 18.8167 1.35 17 3.46667C15.1833 1.35 12.4 0 9.49999 0C4.36666 0 0.333328 4.01667 0.333328 9.16667C0.333328 15.45 5.99999 20.6 14.5833 28.3833L17 30.5833L19.4167 28.3833C28 20.6 33.6667 15.45 33.6667 9.16667C33.6667 4.01667 29.6333 0 24.5 0Z" fill="white"/>
</svg>
