<svg width="30" height="30" viewBox="0 0 30 30" fill="none" xmlns="http://www.w3.org/2000/svg">
<path d="M15 4.26833L3.33333 13.6017V26.6667H11.6667V20H18.3333V26.6667H26.6667V14.4033C26.6668 14.1534 26.6106 13.9066 26.5024 13.6813C26.3943 13.456 26.2368 13.2579 26.0417 13.1017L15 4.26833ZM15 0L28.1233 10.5C28.7085 10.9681 29.181 11.5618 29.5059 12.2372C29.8307 12.9125 29.9996 13.6523 30 14.4017V26.6667C30 27.5507 29.6488 28.3986 29.0237 29.0237C28.3986 29.6488 27.5507 30 26.6667 30H3.33333C2.44928 30 1.60143 29.6488 0.976311 29.0237C0.351189 28.3986 0 27.5507 0 26.6667V13.6017C6.23295e-05 13.1021 0.112431 12.6088 0.328797 12.1585C0.545163 11.7082 0.859991 11.3123 1.25 11L15 0Z" fill="white"/>
</svg>
